<svg width="300" height="320" viewBox="0 0 300 320" xmlns="http://www.w3.org/2000/svg" role="img" aria-label="Dynasty Little Helper Fantasy Football">
<g transform="translate(90,14)">
  <polygon points="36,16 27,52 55,42" fill="#E6B422"></polygon>
  <polygon points="84,16 93,52 65,42" fill="#E6B422"></polygon>
  <path d="M42,44 L78,44 Q86,45 86,60 L62,96 Q60,99 58,96 L34,60 Q34,45 42,44 Z" fill="#E6B422"></path>
  <polygon points="46,58 57,54 59,63 48,65" fill="#0A0F0C"></polygon>
  <polygon points="74,58 63,54 61,63 72,65" fill="#0A0F0C"></polygon>
  <polygon points="54,80 66,80 60,90" fill="#0A0F0C"></polygon>
</g>
<text x="150" y="186" font-family="&#39;Space Grotesk&#39;,Arial,Helvetica,sans-serif" font-weight="700" font-size="40" letter-spacing="1" fill="#F1F7F2" text-anchor="middle">DYNASTY</text>
<text x="150" y="224" font-family="&#39;Space Grotesk&#39;,Arial,Helvetica,sans-serif" font-weight="700" font-size="30" letter-spacing="0.5" fill="#F1F7F2" text-anchor="middle">LITTLE HELPER</text>
<line x1="104" y1="246" x2="138" y2="246" stroke="#E6B422" stroke-width="2"></line>
<text x="150" y="252" font-family="&#39;Space Grotesk&#39;,Arial,Helvetica,sans-serif" font-weight="700" font-size="13" letter-spacing="4" fill="#E6B422" text-anchor="middle">FANTASY FOOTBALL</text>
<line x1="162" y1="246" x2="196" y2="246" stroke="#E6B422" stroke-width="2"></line>
</svg>