<svg width="120" height="120" viewBox="0 0 120 120" xmlns="http://www.w3.org/2000/svg" role="img" aria-label="Dynasty Little Helper">
  <rect width="120" height="120" rx="28" fill="#157A3D"></rect>
  <g transform="translate(13,12) scale(0.78)">
    <polygon points="36,16 27,52 55,42" fill="#E6B422"></polygon>
    <polygon points="84,16 93,52 65,42" fill="#E6B422"></polygon>
    <path d="M42,44 L78,44 Q86,45 86,60 L62,96 Q60,99 58,96 L34,60 Q34,45 42,44 Z" fill="#E6B422"></path>
    <polygon points="46,58 57,54 59,63 48,65" fill="#0A0F0C"></polygon>
    <polygon points="74,58 63,54 61,63 72,65" fill="#0A0F0C"></polygon>
    <polygon points="54,80 66,80 60,90" fill="#0A0F0C"></polygon>
  </g>
</svg>