<svg width="540" height="160" viewBox="0 0 540 160" xmlns="http://www.w3.org/2000/svg" role="img" aria-label="Dynasty Little Helper Fantasy Football">
<g transform="translate(8,20) scale(1.08)">
  <polygon points="36,16 27,52 55,42" fill="#E6B422"></polygon>
  <polygon points="84,16 93,52 65,42" fill="#E6B422"></polygon>
  <path d="M42,44 L78,44 Q86,45 86,60 L62,96 Q60,99 58,96 L34,60 Q34,45 42,44 Z" fill="#E6B422"></path>
  <polygon points="46,58 57,54 59,63 48,65" fill="#0A0F0C"></polygon>
  <polygon points="74,58 63,54 61,63 72,65" fill="#0A0F0C"></polygon>
  <polygon points="54,80 66,80 60,90" fill="#0A0F0C"></polygon>
</g>
<text x="178" y="70" font-family="&#39;Space Grotesk&#39;,Arial,Helvetica,sans-serif" font-weight="700" font-size="42" letter-spacing="1" fill="#F1F7F2">DYNASTY</text>
<text x="178" y="108" font-family="&#39;Space Grotesk&#39;,Arial,Helvetica,sans-serif" font-weight="700" font-size="32" letter-spacing="0.5" fill="#F1F7F2">LITTLE HELPER</text>
<line x1="180" y1="128" x2="214" y2="128" stroke="#E6B422" stroke-width="2"></line>
<text x="222" y="134" font-family="&#39;Space Grotesk&#39;,Arial,Helvetica,sans-serif" font-weight="700" font-size="12.5" letter-spacing="4" fill="#E6B422">FANTASY FOOTBALL</text>
</svg>