<svg width="680" height="210" viewBox="0 0 680 210" role="img" xmlns="http://www.w3.org/2000/svg">
<title>Dynasty Little Helper horizontal logo</title>
<desc>Chrome robot dog emblem on the left with the Dynasty Little Helper wordmark on the right, adapting to light and dark mode.</desc>
<style>
.wm{fill:#14532D;font-family:Arial,Helvetica,sans-serif;font-weight:800;}
.tag{fill:#B8860B;font-family:Arial,Helvetica,sans-serif;font-weight:700;}
.tagrule{stroke:#B8860B;}
@media (prefers-color-scheme: dark){.wm{fill:#F1F7F2;}.tag{fill:#E6B422;}.tagrule{stroke:#E6B422;}}
</style>

<circle cx="115" cy="105" r="85" fill="#2E3640"/>
<circle cx="115" cy="105" r="81" fill="#157A3D"/>
<circle cx="115" cy="105" r="76" fill="none" stroke="#F2C94C" stroke-width="6"/>
<circle cx="115" cy="105" r="71" fill="#157A3D"/>

<g transform="translate(-41.4,-46.8) scale(0.46)">
<line x1="340" y1="236" x2="340" y2="198" stroke="#5C6770" stroke-width="5"/>
<circle cx="340" cy="192" r="9" fill="#FF5A4D"/>
<circle cx="337" cy="189" r="3" fill="#FFD0CB"/>
<polygon points="288,252 250,298 264,372 304,338" fill="#6E7B88" stroke="#2E3640" stroke-width="3"/>
<polygon points="392,252 430,298 416,372 376,338" fill="#6E7B88" stroke="#2E3640" stroke-width="3"/>
<polygon points="290,268 268,300 278,352 300,330" fill="#4C5763"/>
<polygon points="390,268 412,300 402,352 380,330" fill="#4C5763"/>
<rect x="280" y="240" width="120" height="142" rx="38" fill="#B7C2CD" stroke="#3A4450" stroke-width="3"/>
<rect x="288" y="246" width="104" height="34" rx="22" fill="#D7DEE5"/>
<line x1="340" y1="250" x2="340" y2="276" stroke="#5C6770" stroke-width="3"/>
<circle cx="340" cy="260" r="5" fill="#E6B422" stroke="#B8860B" stroke-width="1.5"/>
<circle cx="298" cy="256" r="4" fill="#8A96A2"/>
<circle cx="382" cy="256" r="4" fill="#8A96A2"/>
<rect x="298" y="286" width="84" height="38" rx="18" fill="#2E3640"/>
<circle cx="320" cy="305" r="14" fill="#FFD45E"/>
<circle cx="320" cy="305" r="7" fill="#E6A700"/>
<circle cx="315" cy="300" r="3.5" fill="#FFFFFF"/>
<circle cx="360" cy="305" r="14" fill="#FFD45E"/>
<circle cx="360" cy="305" r="7" fill="#E6A700"/>
<circle cx="355" cy="300" r="3.5" fill="#FFFFFF"/>
<circle cx="294" cy="332" r="4" fill="#8A96A2"/>
<circle cx="386" cy="332" r="4" fill="#8A96A2"/>
<rect x="309" y="356" width="62" height="64" rx="26" fill="#C2CCD6" stroke="#3A4450" stroke-width="3"/>
<ellipse cx="340" cy="388" rx="19" ry="13" fill="#2E3640"/>
<ellipse cx="333" cy="384" rx="5" ry="3" fill="#7A8694"/>
<path d="M322 404 Q340 422 358 404" fill="none" stroke="#3A4450" stroke-width="3" stroke-linecap="round"/>
<rect x="284" y="430" width="112" height="22" rx="11" fill="#E6B422" stroke="#B8860B" stroke-width="2"/>
<circle cx="306" cy="441" r="3" fill="#7A5B0A"/>
<circle cx="340" cy="441" r="3" fill="#7A5B0A"/>
<circle cx="374" cy="441" r="3" fill="#7A5B0A"/>
<circle cx="340" cy="456" r="4" fill="#C9961E" stroke="#7A5B0A" stroke-width="1"/>
<ellipse cx="340" cy="478" rx="26" ry="17" fill="#8B4A1E" stroke="#5A2E10" stroke-width="2.5"/>
<line x1="340" y1="466" x2="340" y2="490" stroke="#F5EAD2" stroke-width="2.5"/>
<line x1="332" y1="472" x2="348" y2="472" stroke="#F5EAD2" stroke-width="2"/>
<line x1="332" y1="478" x2="348" y2="478" stroke="#F5EAD2" stroke-width="2"/>
<line x1="332" y1="484" x2="348" y2="484" stroke="#F5EAD2" stroke-width="2"/>
</g>

<text class="wm" x="238" y="98" font-size="56" letter-spacing="1">DYNASTY</text>
<text class="wm" x="238" y="146" font-size="40" letter-spacing="0.5">LITTLE HELPER</text>
<line class="tagrule" x1="240" y1="170" x2="300" y2="170" stroke-width="2"/>
<text class="tag" x="310" y="176" font-size="17" letter-spacing="4">FANTASY FOOTBALL</text>
</svg>
